<?xml version="1.0" encoding="iso-8859-1"?>
<!-- Generator: Adobe Illustrator 19.0.0, SVG Export Plug-In . SVG Version: 6.00 Build 0)  -->
<svg version="1.1" id="Capa_1" xmlns="http://www.w3.org/2000/svg" xmlns:xlink="http://www.w3.org/1999/xlink" x="0px" y="0px"
	 viewBox="0 0 468.293 468.293" style="enable-background:new 0 0 468.293 468.293;" xml:space="preserve">
<circle style="fill:#F6C358;" cx="234.146" cy="234.146" r="234.146"/>
<circle style="fill:#FCD462;" cx="234.146" cy="234.146" r="199.805"/>
<path style="fill:#F6C358;" d="M234.251,408.974c-11.544,0-22.934-1.107-34.008-3.287l2.594-13.192
	c10.241,2.013,20.773,3.034,31.31,3.034l0.161,12.155l-0.003,1.29C234.284,408.974,234.268,408.974,234.251,408.974z
	 M268.411,405.622l-2.627-13.192c10.349-2.059,20.524-5.151,30.246-9.19l5.161,12.417
	C290.655,400.037,279.623,403.389,268.411,405.622z M167.439,395.798c-10.553-4.36-20.721-9.788-30.223-16.134l7.466-11.183
	c8.773,5.854,18.157,10.864,27.892,14.886L167.439,395.798z M331.381,379.464l-7.486-11.17c8.747-5.864,16.965-12.621,24.424-20.09
	l9.515,9.502C349.758,365.795,340.857,373.114,331.381,379.464z M110.717,357.965c-8.087-8.06-15.415-16.952-21.785-26.424
	l11.163-7.506c5.88,8.75,12.651,16.962,20.117,24.408L110.717,357.965z M379.564,331.232l-11.176-7.479
	c5.867-8.773,10.887-18.153,14.916-27.879l12.424,5.148C391.361,311.558,385.924,321.723,379.564,331.232z M72.706,301.364
	c-4.396-10.546-7.758-21.575-9.994-32.774l13.186-2.633c2.065,10.333,5.165,20.504,9.22,30.233L72.706,301.364z M405.653,268.232
	l-13.192-2.607c2.036-10.303,3.067-20.895,3.067-31.477v-0.706h13.448v0.706C408.976,245.603,407.859,257.072,405.653,268.232z
	 M59.317,234.503v-0.355c0-11.344,1.093-22.691,3.25-33.723l13.199,2.581c-1.99,10.185-3.001,20.662-3.001,31.142L59.317,234.503z
	 M392.329,202.004c-2.088-10.326-5.211-20.488-9.288-30.21l12.404-5.201c4.419,10.536,7.804,21.555,10.063,32.751L392.329,202.004z
	 M84.861,172.734l-12.437-5.122c4.344-10.553,9.761-20.727,16.098-30.243l11.196,7.453C93.867,153.605,88.87,162.996,84.861,172.734
	z M368.01,143.975c-5.894-8.727-12.677-16.922-20.169-24.362l9.476-9.541c8.11,8.051,15.458,16.929,21.837,26.378L368.01,143.975z
	 M119.733,120.332l-9.535-9.482c8.057-8.1,16.942-15.438,26.408-21.814l7.512,11.157
	C135.378,106.076,127.173,112.853,119.733,120.332z M323.327,99.625c-8.796-5.844-18.193-10.832-27.928-14.827l5.109-12.444
	c10.549,4.334,20.731,9.738,30.259,16.068L323.327,99.625z M171.947,85.188l-5.188-12.411c10.536-4.403,21.558-7.775,32.758-10.027
	l2.653,13.186C191.834,78.011,181.666,81.123,171.947,85.188z M265.121,75.735c-10.139-1.97-20.56-2.968-30.975-2.968l-0.371-9.377
	l0.246-4.071c11.147,0.049,22.684,1.08,33.667,3.218L265.121,75.735z"/>
<path style="fill:#DC8744;" d="M275.269,234.146c14.082-10.716,22.332-27.153,22.332-45.023c0-31.28-25.45-56.73-56.73-56.73h-6.378
	v-23.415h-11.707v23.415h-13.659v-23.415H197.42v23.415h-11.707h-15.021v23.415h15.021v66.631h-15.021v23.415h15.021v66.631h-15.021
	v23.415h15.021h11.707v23.415h11.707v-23.415h13.659v23.415h11.707v-23.415h6.378c31.28,0,56.73-25.45,56.73-56.73
	C297.601,261.3,289.35,244.863,275.269,234.146z M240.871,312.485h-31.744v-66.631h31.744c18.369,0,33.316,14.947,33.316,33.316
	S259.24,312.485,240.871,312.485z M240.871,222.439h-31.744v-66.631h31.744c18.369,0,33.316,14.947,33.316,33.316
	S259.24,222.439,240.871,222.439z"/>
<g>
</g>
<g>
</g>
<g>
</g>
<g>
</g>
<g>
</g>
<g>
</g>
<g>
</g>
<g>
</g>
<g>
</g>
<g>
</g>
<g>
</g>
<g>
</g>
<g>
</g>
<g>
</g>
<g>
</g>
</svg>
