<svg xmlns="http://www.w3.org/2000/svg" xmlns:xlink="http://www.w3.org/1999/xlink" version="1.1" x="0px" y="0px" viewBox="0 0 100 125" style="enable-background:new 0 0 100 100;" xml:space="preserve"><path d="M50.3,99.3c-2.4,0-4.1-2.2-5.7-4.1c-0.9-1.1-2-2.6-2.7-2.7c-0.7-0.2-2.4,0.8-3.7,1.5c-2.2,1.2-4.5,2.5-6.7,1.6  c-2.2-0.9-2.9-3.5-3.6-5.9c-0.4-1.3-0.9-3.2-1.5-3.6c-0.6-0.4-2.5-0.2-3.9,0c-2.5,0.3-5.2,0.6-6.8-1.1c-1.7-1.7-1.4-4.3-1.1-6.8  c0.2-1.4,0.4-3.3,0-3.9c-0.4-0.6-2.2-1.1-3.6-1.5c-2.5-0.7-5-1.4-5.9-3.6c-0.9-2.2,0.4-4.5,1.6-6.7c0.7-1.2,1.6-2.9,1.5-3.7  C8,58,6.5,56.9,5.4,56c-1.9-1.5-4.1-3.3-4.1-5.7s2.2-4.1,4.1-5.7c1.1-0.9,2.6-2,2.7-2.7c0.1-0.7-0.8-2.4-1.5-3.7  C5.4,36,4.1,33.7,5,31.6c0.9-2.2,3.5-2.9,5.9-3.6c1.3-0.4,3.2-0.9,3.6-1.5c0.4-0.6,0.2-2.5,0-3.9c-0.3-2.5-0.6-5.2,1.1-6.8  c1.7-1.7,4.3-1.4,6.8-1.1c1.4,0.2,3.3,0.4,3.9,0c0.6-0.4,1.1-2.2,1.5-3.6c0.7-2.5,1.4-5,3.6-5.9c2.2-0.9,4.5,0.4,6.7,1.6  c1.2,0.7,2.9,1.6,3.7,1.5c0.7-0.1,1.9-1.6,2.7-2.7c1.5-1.9,3.3-4.1,5.7-4.1s4.1,2.2,5.7,4.1c0.9,1.1,2,2.6,2.7,2.7  c0.8,0.2,2.4-0.8,3.7-1.5C64.6,5.4,66.9,4.2,69,5C71.2,6,72,8.5,72.7,11c0.4,1.3,0.9,3.2,1.5,3.6c0.6,0.4,2.5,0.2,3.9,0  c2.5-0.3,5.2-0.6,6.8,1.1c1.7,1.7,1.4,4.3,1.1,6.8c-0.2,1.4-0.4,3.3,0,3.9c0.4,0.6,2.2,1.1,3.6,1.5c2.5,0.7,5,1.4,5.9,3.6  c0.9,2.2-0.4,4.5-1.6,6.7c-0.7,1.2-1.6,2.9-1.5,3.7c0.1,0.7,1.6,1.9,2.7,2.7c1.9,1.5,4.1,3.3,4.1,5.7s-2.2,4.1-4.1,5.7  c-1.1,0.9-2.6,2-2.7,2.7c-0.1,0.7,0.8,2.4,1.5,3.7c1.2,2.2,2.5,4.5,1.6,6.7c-0.9,2.2-3.5,2.9-5.9,3.6c-1.3,0.4-3.2,0.9-3.6,1.5  c-0.4,0.6-0.2,2.5,0,3.9c0.3,2.5,0.6,5.2-1.1,6.8c-1.7,1.7-4.3,1.4-6.8,1.1c-1.4-0.2-3.3-0.4-3.9,0c-0.6,0.4-1.1,2.2-1.5,3.6  c-0.7,2.5-1.4,5-3.6,5.9c-2.2,0.9-4.5-0.4-6.7-1.6c-1.2-0.7-2.9-1.6-3.7-1.5c-0.7,0.1-1.9,1.6-2.7,2.7  C54.4,97.1,52.7,99.3,50.3,99.3z M41.7,89c0.3,0,0.6,0,0.8,0.1c1.9,0.4,3.4,2.2,4.8,4c0.9,1.1,2.2,2.8,2.9,2.8s2.1-1.7,2.9-2.8  c1.4-1.8,2.8-3.6,4.8-4c2-0.4,4.1,0.7,6.1,1.9c1.1,0.6,3,1.7,3.6,1.4c0.6-0.3,1.2-2.3,1.6-3.7c0.6-2.2,1.3-4.4,2.9-5.5  c1.7-1.1,4-0.9,6.3-0.6c1.3,0.1,3.5,0.4,4-0.1c0.5-0.5,0.2-2.7,0.1-4c-0.3-2.3-0.5-4.6,0.6-6.3c1.1-1.7,3.4-2.3,5.5-2.9  c1.4-0.4,3.4-1,3.7-1.6c0.2-0.6-0.8-2.5-1.4-3.6c-1.1-2-2.3-4.1-1.9-6.1c0.4-1.9,2.2-3.4,4-4.8c1.1-0.9,2.8-2.2,2.8-2.9  s-1.7-2.1-2.8-2.9c-1.8-1.4-3.6-2.8-4-4.8c-0.4-2,0.7-4.1,1.9-6.1c0.6-1.1,1.7-3,1.4-3.6c-0.3-0.6-2.3-1.2-3.7-1.6  c-2.2-0.6-4.4-1.3-5.5-2.9c-1.1-1.7-0.9-4-0.6-6.3c0.1-1.3,0.4-3.5-0.1-4c-0.5-0.5-2.7-0.2-4-0.1c-2.3,0.3-4.6,0.5-6.3-0.6  c-1.7-1.1-2.3-3.4-2.9-5.5c-0.4-1.4-1-3.4-1.6-3.7c-0.6-0.2-2.5,0.8-3.6,1.4c-2,1.1-4.1,2.3-6.1,1.9c-1.9-0.4-3.4-2.2-4.8-4  c-0.9-1.1-2.2-2.8-2.9-2.8s-2.1,1.7-2.9,2.8c-1.4,1.8-2.8,3.6-4.8,4c-2,0.4-4.1-0.7-6.1-1.9c-1.1-0.6-3-1.7-3.6-1.4  c-0.6,0.3-1.2,2.3-1.6,3.7c-0.6,2.2-1.3,4.4-2.9,5.5c-1.7,1.1-4,0.9-6.3,0.6c-1.3-0.1-3.5-0.4-4,0.1c-0.5,0.5-0.2,2.7-0.1,4  c0.3,2.3,0.5,4.6-0.6,6.3c-1.1,1.7-3.4,2.3-5.5,2.9c-1.4,0.4-3.4,1-3.7,1.6C8,33.5,9,35.4,9.7,36.6c1.1,2,2.3,4.1,1.9,6.1  c-0.4,1.9-2.2,3.4-4,4.8c-1.1,0.9-2.8,2.2-2.8,2.9s1.7,2.1,2.8,2.9c1.8,1.4,3.6,2.8,4,4.8c0.4,2-0.7,4.1-1.9,6.1  c-0.6,1.1-1.7,3-1.4,3.6c0.3,0.6,2.3,1.2,3.7,1.6c2.2,0.6,4.4,1.3,5.5,2.9c1.1,1.7,0.9,4,0.6,6.3c-0.1,1.3-0.4,3.5,0.1,4  c0.5,0.5,2.7,0.2,4,0.1c2.3-0.3,4.6-0.5,6.3,0.6c1.7,1.1,2.3,3.4,2.9,5.5c0.4,1.4,1,3.4,1.6,3.7c0.6,0.3,2.5-0.8,3.6-1.4  C38.2,90,40,89,41.7,89z"/><path d="M63.2,42.1c0-5-4-9-9-9.1L54,33v-4.7h-4.4V33h-3.4v-4.7h-4.4V33h-6.2v4.2H42v28h-6.4v4.2h6.2v5h4.4v-5h3.4v5H54v-5l0.2,0  c5.1-0.5,9-4.7,9-9.9c0-0.2,0-5.4-4.4-8.1l-0.3-0.2l0.3-0.2C59,51,63.1,48.1,63.2,42.1z M53.5,48.3h-7.3V37.3h7.3  c3,0,5.5,2.5,5.5,5.5S56.5,48.3,53.5,48.3z M59,59.5c0,3-2.5,5.5-5.5,5.5h-7.3V54.1h7.3C56.5,54.1,59,56.5,59,59.5z"/><path d="M75.8,38.4c1.4-0.5,2.3-1.8,2.3-3.2c0-1.9-1.5-3.4-3.4-3.4c-1.9,0-3.4,1.5-3.4,3.4c0,1.5,0.9,2.8,2.3,3.2v6.3h-5.7V47h8  V38.4z M73.5,35.2c0-0.6,0.5-1.1,1.2-1.1c0.6,0,1.1,0.5,1.1,1.1s-0.5,1.1-1.1,1.1C74,36.3,73.5,35.8,73.5,35.2z"/><path d="M75.8,64.2v-8.6h-8v2.3h5.7v6.3c-1.4,0.5-2.3,1.8-2.3,3.2c0,1.9,1.5,3.4,3.4,3.4c1.9,0,3.4-1.5,3.4-3.4  C78.1,66,77.2,64.7,75.8,64.2z M74.7,66.3c0.6,0,1.1,0.5,1.1,1.1s-0.5,1.1-1.1,1.1c-0.6,0-1.2-0.5-1.2-1.1S74,66.3,74.7,66.3z"/><path d="M79.3,48.2c-1.5,0-2.8,0.9-3.2,2.3h-8.2v2.3H76c0.5,1.4,1.8,2.3,3.2,2.3c1.9,0,3.4-1.5,3.4-3.4S81.2,48.2,79.3,48.2z   M80.4,51.6c0,0.6-0.5,1.1-1.2,1.1s-1.2-0.5-1.2-1.1s0.5-1.2,1.2-1.2S80.4,51,80.4,51.6z"/><path d="M27.8,38.4c1.4-0.5,2.3-1.8,2.3-3.2c0-1.9-1.5-3.4-3.4-3.4c-1.9,0-3.4,1.5-3.4,3.4c0,1.5,0.9,2.8,2.3,3.2V47h8v-2.3h-5.7  V38.4z M25.5,35.2c0-0.6,0.5-1.1,1.1-1.1c0.6,0,1.2,0.5,1.2,1.1s-0.5,1.1-1.2,1.1C26,36.3,25.5,35.8,25.5,35.2z"/><path d="M25.5,64.2c-1.4,0.5-2.3,1.8-2.3,3.2c0,1.9,1.5,3.4,3.4,3.4c1.9,0,3.4-1.5,3.4-3.4c0-1.5-0.9-2.8-2.3-3.2v-6.3h5.7v-2.3h-8  V64.2z M27.8,67.4c0,0.6-0.5,1.1-1.2,1.1c-0.6,0-1.1-0.5-1.1-1.1s0.5-1.1,1.1-1.1C27.3,66.3,27.8,66.8,27.8,67.4z"/><path d="M22,48.2c-1.9,0-3.4,1.5-3.4,3.4s1.5,3.4,3.4,3.4c1.5,0,2.8-0.9,3.2-2.3h8.2v-2.3h-8.2C24.8,49.1,23.5,48.2,22,48.2z   M23.2,51.6c0,0.6-0.5,1.1-1.2,1.1s-1.2-0.5-1.2-1.1s0.5-1.2,1.2-1.2S23.2,51,23.2,51.6z"/><text x="0" y="115" fill="#000000" font-size="5px" font-weight="bold" font-family="'Helvetica Neue', Helvetica, Arial-Unicode, Arial, Sans-serif">Created by Aneeque Ahmed</text><text x="0" y="120" fill="#000000" font-size="5px" font-weight="bold" font-family="'Helvetica Neue', Helvetica, Arial-Unicode, Arial, Sans-serif">from the Noun Project</text></svg>