<svg xmlns="http://www.w3.org/2000/svg" xmlns:xlink="http://www.w3.org/1999/xlink" version="1.1" x="0px" y="0px" viewBox="0 0 64 80" style="enable-background:new 0 0 64 64;" xml:space="preserve"><title>Icons</title><path d="M58,32.1V7.9c2.1-0.6,3.4-2.7,2.9-4.9S58.1-0.4,56,0.1S52.6,2.8,53.1,5c0.4,1.4,1.5,2.5,2.9,2.9v24.2  c-0.6,0.1-1.1,0.2-1.6,0.4c0,0,0-0.1,0-0.1l-6-8.9c0,0,0,0-0.1-0.1c1.5-1.6,1.5-4.1-0.1-5.7c-1.6-1.5-4.1-1.5-5.7,0.1  c-0.2,0.2-0.3,0.4-0.5,0.6c0,0-0.1,0-0.1-0.1l-21.9-8c0-0.1,0-0.2,0-0.3c0-2.2-1.8-4-4-4s-4,1.8-4,4s1.8,4,4,4l0,0l2,8.6  c-6,1.1-9.9,6.9-8.8,12.8c0.6,3,2.3,5.6,4.9,7.2L5.3,56.3c-2.1-0.7-4.4,0.4-5.1,2.4s0.4,4.4,2.4,5.1c2.1,0.7,4.4-0.4,5.1-2.4  C7.9,60.9,8,60.5,8,60c0-1-0.4-1.9-1-2.6l8.9-13.8c3.3,1.3,7,1,10-0.9l5.7,7.3c-1.2,1.9-0.6,4.3,1.3,5.5c1.9,1.2,4.3,0.6,5.5-1.3  c0.6-1,0.8-2.3,0.4-3.4h0.1l12.9-6.8c0.1,0,0.1-0.1,0.2-0.1c2.6,2.8,7.1,3,9.9,0.3s3-7.1,0.3-9.9C61,33.1,59.6,32.3,58,32.1z M4,62  c-1.1,0-2-0.9-2-2s0.9-2,2-2s2,0.9,2,2S5.1,62,4,62z M55,4c0-1.1,0.9-2,2-2s2,0.9,2,2s-0.9,2-2,2S55,5.1,55,4z M52.7,33.5L52.7,33.5  c-1.1,0.9-2,2.2-2.4,3.6L31,34c0-0.2,0-0.5,0-0.7c0-1.2-0.2-2.4-0.6-3.5l0,0l11.8-6.7c1,1.3,2.8,1.9,4.4,1.3c0,0.1,0,0.1,0.1,0.1  L52.7,33.5z M45.3,18.7c1.1,0,2,0.9,2,2s-0.9,2-2,2s-2-0.9-2-2C43.3,19.6,44.2,18.7,45.3,18.7L45.3,18.7z M14,10c0-1.1,0.9-2,2-2  s2,0.9,2,2s-0.9,2-2,2S14,11.1,14,10z M18,13.6l-0.3,0.1c0.7-0.3,1.3-0.8,1.7-1.4l21.9,8.1h0.1c0,0.1,0,0.3,0,0.4  c0,0.2,0,0.4,0.1,0.6L29.6,28c-1.9-3.5-5.6-5.7-9.6-5.7l0,0L18,13.6z M11,33.3c0-5,4-9,9-9s9,4,9,9s-4,9-9,9l0,0  C15,42.3,11,38.3,11,33.3z M35,54c-1.1,0-2-0.9-2-2s0.9-2,2-2s2,0.9,2,2S36.1,54,35,54z M37.9,48.9c-0.1,0-0.1,0.1-0.2,0.2  c-1.3-1.2-3.2-1.5-4.7-0.5l-5.5-7.1c1.6-1.5,2.7-3.3,3.2-5.4L50,39.1c0,1,0.3,2.1,0.7,3L37.9,48.9z M57,44c-2.8,0-5-2.2-5-5  s2.2-5,5-5s5,2.2,5,5S59.8,44,57,44z"/><path d="M21.3,40.2c-0.4,0-0.8,0-1.3,0c0-0.1,0-0.1,0-0.2c0-0.5,0-1,0-1.5c0-0.1,0-0.2-0.2-0.2c-0.3,0-0.5,0-0.8,0  c-0.1,0-0.2,0-0.2,0.2c0,0.5,0,1,0,1.5c0,0.1,0,0.1,0,0.2c-0.4,0-0.8,0-1.2,0c0-0.6,0-1.2,0-1.9c-0.1,0-0.1,0-0.2,0  c-0.7,0-1.4,0-2.1,0c-0.1,0-0.2,0-0.2-0.2c0-0.3,0-0.6,0-1c0.2,0,0.4,0,0.6,0c0.2,0,0.4,0,0.6-0.1c0.2,0,0.3-0.1,0.3-0.3  c0-0.2,0.1-0.3,0.1-0.5c0-2,0-4,0-6c0-0.2,0-0.4-0.1-0.6c0-0.2-0.2-0.3-0.4-0.3c-0.3,0-0.6,0-0.9,0c-0.3,0-0.3,0-0.3-0.3  c0-0.3,0-0.6,0-0.9c0.1,0,0.1,0,0.2,0c0.7,0,1.4,0,2.1,0c0.1,0,0.2,0,0.2-0.2c0-0.5,0-1,0-1.5c0-0.1,0-0.1,0-0.2c0.4,0,0.8,0,1.3,0  c0,0.1,0,0.1,0,0.2c0,0.5,0,1,0,1.5c0,0.1,0,0.2,0.2,0.2c0.3,0,0.5,0,0.8,0c0.1,0,0.2,0,0.2-0.2c0-0.5,0-1,0-1.5c0-0.1,0-0.1,0-0.2  c0.4,0,0.8,0,1.3,0c0,0.1,0,0.2,0,0.2c0,0.5,0,1,0,1.4c0,0.2,0,0.2,0.2,0.2c0.6,0,1.1,0.1,1.6,0.3c1.3,0.5,1.9,2,1.3,3.2  c-0.3,0.5-0.7,0.8-1.2,1c-0.2,0.1-0.3,0.1-0.5,0.2c0.1,0,0.1,0,0.2,0.1c0.3,0.1,0.7,0.2,1,0.4c0.9,0.5,1.1,1.3,1.1,2.3  c0,0.5-0.1,0.9-0.4,1.4c-0.4,0.6-1,0.8-1.6,1c-0.5,0.1-1,0.2-1.6,0.2c-0.1,0-0.2,0-0.2,0.2c0,0.5,0,1,0,1.5  C21.3,40,21.3,40.1,21.3,40.2z M18.9,35.4L18.9,35.4c0,0.5,0,1.1,0,1.6c0,0.1,0,0.2,0.2,0.2c0.1,0,0.3,0,0.4,0c0.7,0,1.3,0,2-0.1  c0.6-0.1,1.1-0.4,1.3-1.1c0.1-0.5,0.1-0.9-0.1-1.4c-0.1-0.4-0.4-0.6-0.7-0.7c-0.3-0.1-0.6-0.2-0.9-0.2c-0.7,0-1.3,0-2,0  c-0.1,0-0.2,0.1-0.1,0.2C18.9,34.3,18.9,34.8,18.9,35.4z M18.9,30.9L18.9,30.9c0,0.5,0,0.9,0,1.4c0,0.1,0,0.2,0.2,0.2  c0.4,0,0.8,0,1.2,0c0.4,0,0.8-0.1,1.1-0.1c0.5-0.1,0.9-0.4,1-0.9c0.1-0.3,0.1-0.6,0-0.9c-0.1-0.5-0.4-0.8-0.8-1  c-0.2-0.1-0.4-0.1-0.6-0.1c-0.7,0-1.3,0-2,0c-0.1,0-0.1,0.1-0.1,0.1C18.9,29.9,18.9,30.4,18.9,30.9z"/><text x="0" y="79" fill="#000000" font-size="5px" font-weight="bold" font-family="'Helvetica Neue', Helvetica, Arial-Unicode, Arial, Sans-serif">Created by Krisztián Mátyás</text><text x="0" y="84" fill="#000000" font-size="5px" font-weight="bold" font-family="'Helvetica Neue', Helvetica, Arial-Unicode, Arial, Sans-serif">from the Noun Project</text></svg>